<svg width="370" height="203" viewBox="0 0 370 203" fill="none"
    xmlns="http://www.w3.org/2000/svg">
    <path d="M86.939 68.946H121.582V79.854H98.554V96.115H117.542V107.023H98.554V135H86.939V68.946ZM127.496 91.065C127.496 87.9003 128.068 84.9377 129.213 82.177C130.425 79.349 132.041 76.925 134.061 74.905C136.148 72.8177 138.572 71.168 141.333 69.956C144.094 68.744 147.056 68.138 150.221 68.138C153.386 68.138 156.315 68.744 159.008 69.956C161.769 71.168 164.159 72.8177 166.179 74.905C168.199 76.925 169.781 79.349 170.926 82.177C172.138 84.9377 172.744 87.9003 172.744 91.065V113.184C172.744 116.483 172.104 119.513 170.825 122.274C169.613 125.035 167.963 127.425 165.876 129.445C163.856 131.465 161.466 133.047 158.705 134.192C156.012 135.269 153.217 135.808 150.322 135.808C147.292 135.808 144.397 135.269 141.636 134.192C138.875 133.047 136.451 131.465 134.364 129.445C132.277 127.425 130.593 125.035 129.314 122.274C128.102 119.513 127.496 116.483 127.496 113.184V91.065ZM139.111 113.083C139.111 114.564 139.38 115.978 139.919 117.325C140.525 118.672 141.333 119.884 142.343 120.961C143.353 121.971 144.531 122.779 145.878 123.385C147.225 123.991 148.706 124.294 150.322 124.294C151.803 124.294 153.217 123.991 154.564 123.385C155.911 122.779 157.055 121.971 157.998 120.961C158.941 119.884 159.681 118.672 160.22 117.325C160.826 115.978 161.129 114.564 161.129 113.083V91.065C161.129 89.5837 160.826 88.1697 160.22 86.823C159.681 85.4763 158.941 84.2643 157.998 83.187C157.055 82.1097 155.911 81.268 154.564 80.662C153.217 79.9887 151.803 79.652 150.322 79.652C148.706 79.652 147.225 79.9887 145.878 80.662C144.531 81.268 143.353 82.1097 142.343 83.187C141.333 84.2643 140.525 85.4763 139.919 86.823C139.38 88.1697 139.111 89.5837 139.111 91.065V113.083ZM181.5 68.946H202.811C205.841 68.946 208.602 69.5183 211.093 70.663C213.652 71.8077 215.84 73.3563 217.658 75.309C219.476 77.1943 220.89 79.4163 221.9 81.975C222.91 84.4663 223.415 87.0587 223.415 89.752V90.257C223.415 94.095 222.372 97.5963 220.284 100.761C218.264 103.926 215.571 106.316 212.204 107.932L215.638 116.719C216.783 119.749 218.298 121.735 220.183 122.678C222.136 123.621 224.392 124.126 226.95 124.193V135.101C223.18 135.101 220.015 134.63 217.456 133.687C214.965 132.677 212.911 131.465 211.295 130.051C209.679 128.637 208.4 127.156 207.457 125.607C206.582 123.991 205.909 122.611 205.437 121.466L200.993 110.154H193.115V135H181.5V68.946ZM202.003 99.246C204.764 99.246 207.087 98.3707 208.972 96.62C210.858 94.802 211.8 92.5463 211.8 89.853V89.55C211.8 88.2033 211.531 86.9577 210.992 85.813C210.521 84.601 209.848 83.5573 208.972 82.682C208.097 81.7393 207.053 81.0323 205.841 80.561C204.697 80.0223 203.417 79.753 202.003 79.753H193.115V99.246H202.003ZM231.937 135V68.946H266.378V79.854H243.552V95.913H261.732V106.922H243.552V124.092H266.984V135H231.937ZM300.645 87.227C300.51 84.803 299.769 82.8503 298.423 81.369C297.143 79.8203 295.157 79.046 292.464 79.046C289.905 79.046 287.885 79.753 286.404 81.167C284.99 82.581 284.283 84.5337 284.283 87.025C284.283 89.1123 284.99 90.762 286.404 91.974C287.818 93.1187 289.568 94.1623 291.656 95.105C293.81 95.9803 296.1 96.8893 298.524 97.832C301.015 98.7747 303.304 99.9867 305.392 101.468C307.546 102.949 309.331 104.868 310.745 107.225C312.159 109.582 312.866 112.645 312.866 116.416C312.866 118.975 312.428 121.432 311.553 123.789C310.745 126.078 309.499 128.132 307.816 129.95C306.132 131.701 304.011 133.115 301.453 134.192C298.894 135.269 295.898 135.808 292.464 135.808C289.568 135.808 286.875 135.337 284.384 134.394C281.96 133.451 279.872 132.105 278.122 130.354C276.371 128.603 274.957 126.482 273.88 123.991C272.87 121.5 272.331 118.739 272.264 115.709H283.879C283.946 118.133 284.72 120.288 286.202 122.173C287.683 123.991 289.871 124.9 292.767 124.9C295.123 124.9 297.11 124.193 298.726 122.779C300.409 121.298 301.251 119.244 301.251 116.618C301.251 114.329 300.544 112.544 299.13 111.265C297.716 109.918 295.931 108.774 293.777 107.831C291.689 106.821 289.4 105.878 286.909 105.003C284.485 104.06 282.195 102.882 280.041 101.468C277.953 99.9867 276.203 98.135 274.789 95.913C273.375 93.6237 272.668 90.6273 272.668 86.924C272.668 84.4327 273.105 82.076 273.981 79.854C274.923 77.5647 276.236 75.5783 277.92 73.895C279.67 72.1443 281.758 70.764 284.182 69.754C286.673 68.6767 289.501 68.138 292.666 68.138C295.83 68.138 298.591 68.643 300.948 69.653C303.372 70.663 305.392 72.0433 307.008 73.794C308.691 75.4773 309.937 77.4637 310.745 79.753C311.62 82.0423 312.058 84.5 312.058 87.126L300.645 87.227ZM319.989 135V68.946H354.43V79.854H331.604V95.913H349.784V106.922H331.604V124.092H355.036V135H319.989Z" fill="#1E40AF"/>
    <line x1="60" x2="60" y2="203" stroke="#1E40AF" stroke-width="4"/>
    <line x1="46" y1="15" x2="120" y2="15" stroke="#1E40AF" stroke-width="4"/>
    <line x1="17" y1="189" x2="91" y2="189" stroke="#1E40AF" stroke-width="4"/>
    <line x1="19" y1="38" x2="145" y2="38" stroke="#1E40AF" stroke-width="4"/>
    <line y1="167" x2="98" y2="167" stroke="#1E40AF" stroke-width="4"/>
</svg>
